<?xml version="1.0" encoding="UTF-8"?><svg xmlns="http://www.w3.org/2000/svg" xmlns:xlink="http://www.w3.org/1999/xlink" width="375" zoomAndPan="magnify" viewBox="0 0 375 374.999991" height="374.999991" preserveAspectRatio="xMidYMid meet" version="1.0"><defs><clipPath id="clip-0"><path d="M 145.246094 216 L 182 216 L 182 256 L 145.246094 256 Z M 145.246094 216 " clip-rule="nonzero"/></clipPath><clipPath id="clip-1"><path d="M 148 164.695312 L 206 164.695312 L 206 238 L 148 238 Z M 148 164.695312 " clip-rule="nonzero"/></clipPath><clipPath id="clip-2"><path d="M 168 164.695312 L 206 164.695312 L 206 195 L 168 195 Z M 168 164.695312 " clip-rule="nonzero"/></clipPath><clipPath id="clip-3"><path d="M 146 252 L 206 252 L 206 257.695312 L 146 257.695312 Z M 146 252 " clip-rule="nonzero"/></clipPath></defs><path fill="rgb(28.62854%, 69.018555%, 71.369934%)" d="M 187.621094 146.78125 C 164.21875 146.78125 145.246094 165.753906 145.246094 189.15625 C 145.246094 212.5625 164.21875 231.53125 187.621094 231.53125 C 211.027344 231.53125 229.996094 212.5625 229.996094 189.15625 C 229.996094 165.753906 211.027344 146.78125 187.621094 146.78125 Z M 187.621094 146.78125 " fill-opacity="1" fill-rule="nonzero"/><path fill="rgb(100%, 96.469116%, 92.158508%)" d="M 158.894531 253.265625 C 158.53125 253.265625 158.160156 253.1875 157.8125 253.019531 L 149.472656 249.050781 C 148.507812 248.589844 147.9375 247.570312 148.050781 246.503906 L 150.703125 221.179688 C 150.789062 220.363281 151.265625 219.640625 151.980469 219.238281 C 152.363281 219.023438 152.789062 218.914062 153.214844 218.914062 C 153.585938 218.914062 153.957031 218.996094 154.300781 219.160156 L 177.945312 230.417969 C 178.683594 230.773438 179.207031 231.460938 179.347656 232.269531 C 179.484375 233.078125 179.226562 233.902344 178.648438 234.484375 L 160.683594 252.523438 C 160.199219 253.007812 159.554688 253.265625 158.894531 253.265625 Z M 158.894531 253.265625 " fill-opacity="1" fill-rule="nonzero"/><g clip-path="url(#clip-0)"><path fill="rgb(28.62854%, 69.018555%, 71.369934%)" d="M 153.214844 221.441406 L 176.859375 232.699219 L 158.898438 250.738281 L 150.558594 246.769531 L 153.214844 221.441406 M 153.214844 216.390625 C 152.363281 216.390625 151.511719 216.605469 150.746094 217.035156 C 149.316406 217.835938 148.363281 219.285156 148.195312 220.914062 L 145.539062 246.242188 C 145.316406 248.371094 146.457031 250.410156 148.390625 251.332031 L 156.726562 255.300781 C 157.421875 255.632812 158.160156 255.792969 158.894531 255.792969 C 160.210938 255.792969 161.503906 255.277344 162.472656 254.304688 L 180.433594 236.265625 C 181.589844 235.105469 182.113281 233.453125 181.832031 231.839844 C 181.554688 230.222656 180.507812 228.84375 179.027344 228.140625 L 155.382812 216.878906 C 154.695312 216.550781 153.953125 216.390625 153.214844 216.390625 Z M 153.214844 216.390625 " fill-opacity="1" fill-rule="nonzero"/></g><path fill="rgb(100%, 96.469116%, 92.158508%)" d="M 176.859375 235.230469 C 176.496094 235.230469 176.125 235.148438 175.777344 234.984375 L 152.128906 223.722656 C 150.898438 223.136719 150.355469 221.679688 150.898438 220.429688 L 150.933594 220.351562 C 150.988281 220.222656 151.046875 220.09375 151.105469 219.96875 L 174.554688 170.644531 C 175.160156 169.371094 176.824219 167.230469 181.136719 167.230469 C 188.03125 167.230469 198.804688 172.742188 202.09375 177.949219 C 203.792969 180.644531 203.40625 182.773438 202.78125 184.085938 L 179.332031 233.410156 C 179.269531 233.535156 179.207031 233.664062 179.140625 233.789062 L 179.101562 233.863281 C 178.65625 234.726562 177.773438 235.230469 176.859375 235.230469 Z M 176.859375 235.230469 " fill-opacity="1" fill-rule="nonzero"/><g clip-path="url(#clip-1)"><path fill="rgb(28.62854%, 69.018555%, 71.369934%)" d="M 181.136719 169.757812 C 188.78125 169.757812 202.953125 177.847656 200.503906 183 L 177.050781 232.324219 C 176.992188 232.453125 176.925781 232.578125 176.859375 232.703125 L 153.214844 221.441406 C 153.269531 221.3125 153.324219 221.183594 153.386719 221.054688 L 176.835938 171.730469 C 177.496094 170.34375 179.078125 169.757812 181.136719 169.757812 M 181.136719 164.703125 C 175.4375 164.703125 173.140625 167.746094 172.277344 169.558594 L 148.828125 218.882812 C 148.753906 219.035156 148.6875 219.191406 148.621094 219.34375 L 148.585938 219.417969 C 147.496094 221.917969 148.582031 224.832031 151.042969 226.003906 L 174.691406 237.265625 C 175.390625 237.597656 176.128906 237.753906 176.859375 237.753906 C 178.691406 237.753906 180.453125 236.753906 181.347656 235.019531 L 181.382812 234.949219 C 181.460938 234.800781 181.539062 234.648438 181.609375 234.496094 L 205.0625 185.171875 C 205.796875 183.628906 206.664062 180.460938 204.226562 176.601562 C 200.4375 170.597656 189 164.703125 181.136719 164.703125 Z M 181.136719 164.703125 " fill-opacity="1" fill-rule="nonzero"/></g><path fill="rgb(100%, 96.469116%, 92.158508%)" d="M 197.253906 192.355469 C 196.882812 192.355469 196.511719 192.273438 196.171875 192.113281 L 172.503906 180.839844 C 171.246094 180.242188 170.710938 178.734375 171.308594 177.472656 L 174.554688 170.644531 C 175.164062 169.371094 176.824219 167.230469 181.136719 167.230469 C 188.03125 167.230469 198.804688 172.742188 202.09375 177.949219 C 203.792969 180.644531 203.40625 182.773438 202.78125 184.085938 L 199.535156 190.914062 C 199.246094 191.519531 198.730469 191.984375 198.101562 192.210938 C 197.828125 192.308594 197.542969 192.355469 197.253906 192.355469 Z M 197.253906 192.355469 " fill-opacity="1" fill-rule="nonzero"/><g clip-path="url(#clip-2)"><path fill="rgb(28.62854%, 69.018555%, 71.369934%)" d="M 181.136719 169.757812 C 188.78125 169.757812 202.953125 177.847656 200.503906 183 L 197.253906 189.828125 L 173.589844 178.558594 L 176.835938 171.730469 C 177.496094 170.34375 179.078125 169.757812 181.136719 169.757812 M 181.136719 164.703125 C 175.4375 164.703125 173.136719 167.746094 172.277344 169.558594 L 169.03125 176.390625 C 167.832031 178.910156 168.902344 181.921875 171.417969 183.121094 L 195.085938 194.390625 C 195.785156 194.726562 196.523438 194.882812 197.253906 194.882812 C 199.140625 194.882812 200.949219 193.820312 201.8125 192 L 205.0625 185.171875 C 205.796875 183.628906 206.664062 180.460938 204.226562 176.601562 C 200.4375 170.597656 189 164.703125 181.136719 164.703125 Z M 181.136719 164.703125 " fill-opacity="1" fill-rule="nonzero"/></g><g clip-path="url(#clip-3)"><path fill="rgb(28.62854%, 69.018555%, 71.369934%)" d="M 203.015625 257.710938 L 148.980469 257.710938 C 147.585938 257.710938 146.457031 256.582031 146.457031 255.1875 C 146.457031 253.789062 147.585938 252.660156 148.980469 252.660156 L 203.015625 252.660156 C 204.410156 252.660156 205.539062 253.789062 205.539062 255.1875 C 205.539062 256.582031 204.410156 257.710938 203.015625 257.710938 Z M 203.015625 257.710938 " fill-opacity="1" fill-rule="nonzero"/></g><path fill="rgb(100%, 96.469116%, 92.158508%)" d="M 170.777344 221.183594 C 170.128906 221.183594 169.507812 221.046875 168.941406 220.777344 C 164.683594 218.761719 165.769531 211.527344 168.730469 205.25 C 170.933594 200.589844 174.945312 195.148438 179.011719 195.148438 C 179.660156 195.148438 180.277344 195.285156 180.847656 195.554688 C 185.105469 197.566406 184.019531 204.800781 181.054688 211.078125 C 178.855469 215.738281 174.84375 221.183594 170.777344 221.183594 Z M 170.777344 221.183594 " fill-opacity="1" fill-rule="nonzero"/><path fill="rgb(28.62854%, 69.018555%, 71.369934%)" d="M 179.011719 197.675781 C 179.28125 197.675781 179.535156 197.726562 179.769531 197.839844 C 181.910156 198.851562 181.464844 204.296875 178.773438 210 C 176.375 215.082031 173 218.65625 170.777344 218.65625 C 170.503906 218.65625 170.25 218.601562 170.019531 218.492188 C 167.875 217.480469 168.320312 212.035156 171.015625 206.332031 C 173.414062 201.246094 176.789062 197.675781 179.011719 197.675781 M 179.011719 192.621094 C 179.011719 192.621094 179.011719 192.621094 179.007812 192.621094 C 172.414062 192.625 167.726562 201.464844 166.449219 204.171875 C 164.894531 207.464844 163.90625 210.871094 163.671875 213.757812 C 163.167969 219.890625 166.082031 222.21875 167.863281 223.058594 C 168.769531 223.488281 169.75 223.707031 170.777344 223.707031 C 177.375 223.707031 182.058594 214.867188 183.339844 212.160156 C 184.894531 208.863281 185.878906 205.460938 186.117188 202.574219 C 186.617188 196.441406 183.707031 194.113281 181.925781 193.269531 C 181.015625 192.839844 180.035156 192.621094 179.011719 192.621094 Z M 179.011719 192.621094 " fill-opacity="1" fill-rule="nonzero"/></svg>