<?xml version="1.0" encoding="UTF-8"?><svg xmlns="http://www.w3.org/2000/svg" xmlns:xlink="http://www.w3.org/1999/xlink" width="375" zoomAndPan="magnify" viewBox="0 0 375 374.999991" height="374.999991" preserveAspectRatio="xMidYMid meet" version="1.0"><defs><clipPath id="clip-0"><path d="M 154.425781 160 L 192 160 L 192 200 L 154.425781 200 Z M 154.425781 160 " clip-rule="nonzero"/></clipPath><clipPath id="clip-1"><path d="M 157 108.59375 L 215.925781 108.59375 L 215.925781 182 L 157 182 Z M 157 108.59375 " clip-rule="nonzero"/></clipPath><clipPath id="clip-2"><path d="M 177 108.59375 L 215.925781 108.59375 L 215.925781 139 L 177 139 Z M 177 108.59375 " clip-rule="nonzero"/></clipPath><clipPath id="clip-3"><path d="M 155 196 L 215 196 L 215 201.59375 L 155 201.59375 Z M 155 196 " clip-rule="nonzero"/></clipPath></defs><path fill="rgb(1.959229%, 40.779114%, 43.139648%)" d="M 196.800781 90.679688 C 173.398438 90.679688 154.425781 109.652344 154.425781 133.054688 C 154.425781 156.457031 173.398438 175.429688 196.800781 175.429688 C 220.203125 175.429688 239.175781 156.457031 239.175781 133.054688 C 239.175781 109.652344 220.203125 90.679688 196.800781 90.679688 Z M 196.800781 90.679688 " fill-opacity="1" fill-rule="nonzero"/><path fill="rgb(100%, 96.469116%, 92.158508%)" d="M 168.074219 197.164062 C 167.707031 197.164062 167.335938 197.082031 166.992188 196.917969 L 158.652344 192.949219 C 157.6875 192.488281 157.113281 191.46875 157.226562 190.402344 L 159.882812 165.074219 C 159.96875 164.261719 160.445312 163.535156 161.15625 163.136719 C 161.539062 162.921875 161.964844 162.8125 162.394531 162.8125 C 162.761719 162.8125 163.132812 162.894531 163.476562 163.058594 L 187.121094 174.316406 C 187.859375 174.667969 188.382812 175.359375 188.523438 176.167969 C 188.664062 176.976562 188.402344 177.800781 187.824219 178.382812 L 169.863281 196.421875 C 169.378906 196.90625 168.730469 197.164062 168.074219 197.164062 Z M 168.074219 197.164062 " fill-opacity="1" fill-rule="nonzero"/><g clip-path="url(#clip-0)"><path fill="rgb(1.959229%, 40.779114%, 43.139648%)" d="M 162.394531 165.339844 L 186.035156 176.597656 L 168.074219 194.636719 L 159.738281 190.667969 L 162.394531 165.339844 M 162.394531 160.289062 C 161.539062 160.289062 160.6875 160.503906 159.921875 160.933594 C 158.496094 161.734375 157.542969 163.179688 157.371094 164.8125 L 154.714844 190.140625 C 154.492188 192.269531 155.636719 194.308594 157.566406 195.230469 L 165.90625 199.199219 C 166.597656 199.53125 167.339844 199.691406 168.074219 199.691406 C 169.386719 199.691406 170.679688 199.175781 171.648438 198.203125 L 189.613281 180.164062 C 190.769531 179.003906 191.289062 177.351562 191.011719 175.734375 C 190.730469 174.121094 189.683594 172.742188 188.207031 172.035156 L 164.5625 160.777344 C 163.875 160.449219 163.132812 160.289062 162.394531 160.289062 Z M 162.394531 160.289062 " fill-opacity="1" fill-rule="nonzero"/></g><path fill="rgb(100%, 96.469116%, 92.158508%)" d="M 186.035156 179.125 C 185.671875 179.125 185.304688 179.046875 184.953125 178.878906 L 161.304688 167.621094 C 160.078125 167.035156 159.53125 165.578125 160.078125 164.328125 L 160.109375 164.25 C 160.167969 164.121094 160.222656 163.992188 160.28125 163.867188 L 183.734375 114.542969 C 184.339844 113.265625 186 111.128906 190.3125 111.128906 C 197.210938 111.128906 207.980469 116.636719 211.269531 121.847656 C 212.96875 124.542969 212.582031 126.671875 211.960938 127.984375 L 188.507812 177.308594 C 188.449219 177.433594 188.382812 177.558594 188.316406 177.6875 L 188.28125 177.757812 C 187.835938 178.625 186.953125 179.125 186.035156 179.125 Z M 186.035156 179.125 " fill-opacity="1" fill-rule="nonzero"/><g clip-path="url(#clip-1)"><path fill="rgb(1.959229%, 40.779114%, 43.139648%)" d="M 190.3125 113.65625 C 197.957031 113.65625 212.132812 121.746094 209.679688 126.898438 L 186.230469 176.222656 C 186.167969 176.351562 186.101562 176.472656 186.039062 176.597656 L 162.390625 165.339844 C 162.449219 165.210938 162.503906 165.078125 162.5625 164.953125 L 186.011719 115.628906 C 186.671875 114.238281 188.257812 113.65625 190.3125 113.65625 M 190.3125 108.601562 C 184.613281 108.601562 182.316406 111.644531 181.453125 113.457031 L 158.003906 162.78125 C 157.929688 162.933594 157.863281 163.085938 157.796875 163.242188 L 157.765625 163.316406 C 156.671875 165.8125 157.761719 168.730469 160.222656 169.902344 L 183.871094 181.160156 C 184.570312 181.496094 185.308594 181.652344 186.035156 181.652344 C 187.867188 181.652344 189.628906 180.652344 190.523438 178.917969 L 190.558594 178.847656 C 190.636719 178.699219 190.714844 178.546875 190.789062 178.394531 L 214.238281 129.070312 C 214.972656 127.523438 215.839844 124.359375 213.40625 120.5 C 209.617188 114.496094 198.179688 108.601562 190.3125 108.601562 Z M 190.3125 108.601562 " fill-opacity="1" fill-rule="nonzero"/></g><path fill="rgb(100%, 96.469116%, 92.158508%)" d="M 206.433594 136.253906 C 206.0625 136.253906 205.691406 136.171875 205.347656 136.007812 L 181.679688 124.738281 C 180.421875 124.140625 179.886719 122.632812 180.488281 121.371094 L 183.734375 114.542969 C 184.339844 113.265625 186 111.128906 190.3125 111.128906 C 197.210938 111.128906 207.984375 116.636719 211.269531 121.847656 C 212.96875 124.542969 212.582031 126.671875 211.960938 127.984375 L 208.710938 134.8125 C 208.425781 135.417969 207.910156 135.882812 207.277344 136.109375 C 207.003906 136.207031 206.71875 136.253906 206.433594 136.253906 Z M 206.433594 136.253906 " fill-opacity="1" fill-rule="nonzero"/><g clip-path="url(#clip-2)"><path fill="rgb(1.959229%, 40.779114%, 43.139648%)" d="M 190.3125 113.65625 C 197.957031 113.652344 212.132812 121.742188 209.679688 126.898438 L 206.433594 133.726562 L 182.765625 122.457031 L 186.011719 115.628906 C 186.671875 114.242188 188.257812 113.65625 190.3125 113.65625 M 190.316406 108.601562 C 190.316406 108.601562 190.3125 108.601562 190.3125 108.601562 C 184.613281 108.601562 182.316406 111.644531 181.453125 113.457031 L 178.207031 120.285156 C 177.007812 122.804688 178.078125 125.820312 180.597656 127.019531 L 204.265625 138.289062 C 204.964844 138.625 205.703125 138.78125 206.429688 138.78125 C 208.316406 138.78125 210.128906 137.71875 210.992188 135.898438 L 214.238281 129.070312 C 214.972656 127.523438 215.839844 124.359375 213.40625 120.5 C 209.617188 114.496094 198.179688 108.601562 190.316406 108.601562 Z M 190.316406 108.601562 " fill-opacity="1" fill-rule="nonzero"/></g><g clip-path="url(#clip-3)"><path fill="rgb(1.959229%, 40.779114%, 43.139648%)" d="M 212.195312 201.609375 L 158.15625 201.609375 C 156.761719 201.609375 155.632812 200.480469 155.632812 199.082031 C 155.632812 197.6875 156.761719 196.558594 158.15625 196.558594 L 212.195312 196.558594 C 213.589844 196.558594 214.71875 197.6875 214.71875 199.082031 C 214.71875 200.480469 213.589844 201.609375 212.195312 201.609375 Z M 212.195312 201.609375 " fill-opacity="1" fill-rule="nonzero"/></g><path fill="rgb(100%, 96.469116%, 92.158508%)" d="M 179.953125 165.078125 C 179.304688 165.078125 178.6875 164.941406 178.117188 164.671875 C 173.863281 162.660156 174.945312 155.425781 177.910156 149.148438 C 180.109375 144.488281 184.121094 139.046875 188.1875 139.046875 C 188.835938 139.046875 189.457031 139.183594 190.023438 139.453125 C 194.28125 141.464844 193.195312 148.699219 190.234375 154.976562 C 188.035156 159.636719 184.019531 165.078125 179.953125 165.078125 Z M 179.953125 165.078125 " fill-opacity="1" fill-rule="nonzero"/><path fill="rgb(1.959229%, 40.779114%, 43.139648%)" d="M 188.1875 141.574219 C 188.460938 141.574219 188.714844 141.625 188.945312 141.734375 C 191.089844 142.75 190.644531 148.195312 187.953125 153.898438 C 185.550781 158.980469 182.175781 162.554688 179.953125 162.554688 C 179.683594 162.554688 179.429688 162.5 179.195312 162.390625 C 177.054688 161.375 177.5 155.929688 180.191406 150.226562 C 182.589844 145.144531 185.964844 141.574219 188.1875 141.574219 M 188.1875 136.519531 C 181.589844 136.519531 176.90625 145.359375 175.625 148.070312 C 174.070312 151.363281 173.085938 154.769531 172.847656 157.65625 C 172.347656 163.789062 175.257812 166.117188 177.039062 166.957031 C 177.949219 167.386719 178.929688 167.605469 179.953125 167.605469 C 186.550781 167.605469 191.238281 158.765625 192.515625 156.054688 C 194.070312 152.761719 195.058594 149.359375 195.292969 146.46875 C 195.796875 140.335938 192.882812 138.007812 191.101562 137.167969 C 190.195312 136.738281 189.214844 136.519531 188.1875 136.519531 Z M 188.1875 136.519531 " fill-opacity="1" fill-rule="nonzero"/></svg>